<svg id="icon" xmlns="http://www.w3.org/2000/svg" viewBox="0 0 495.18 366.86"><defs><style>.cls-1{fill:#fff;}</style></defs><title>3d_image_icon</title><path class="cls-1" d="M377.13,122a8,8,0,0,0-9.21,6.56,7.5,7.5,0,0,0-.12,1.34l.15,114.3c-33.89,5.31-72,8.12-111.67,8.12-40.95,0-80.27-3-115-8.66l.15-113.2a8,8,0,0,0-8-8,8.16,8.16,0,0,0-1.39.12C95.06,129,9,148.61,9,190.41H9L8.41,410.86c0,40.81,83,66.46,178.1,74.85a8.15,8.15,0,0,0,1.48.14h.07c22.28,1.92,45.2,2.89,67.84,2.89,64.64,0,125.47-7.38,171.28-20.79,2.79-.81,5.48-1.64,8.11-2.49a8.14,8.14,0,0,0,2.76-.9c42.44-14.11,64.79-32.57,64.79-53.68l.32-215.45a29.84,29.84,0,0,0,.43-5C503.59,160.49,457.5,135.55,377.13,122Zm110,65.22v6.52c-3.34,13.42-26.68,27.57-63.9,38.43-12.08,3.53-25.26,6.63-39.31,9.27l-.13-102C450.72,151.92,483.2,171.6,487.17,187.21ZM125.44,140.06,125.3,240.8c-12.81-2.5-24.87-5.38-36-8.63C49,220.4,25,204.8,25,190.43,25,174.76,56.13,153.49,125.44,140.06ZM73.66,447.71,153,376.2l74.81,52.87-42.71,40.54c-36-3.27-68.88-9-96.22-17Q80.81,450.25,73.66,447.71Zm132.91,23.53L245.79,434l0,0,62.42-59.24,108.16,79.61c-43.63,11.87-100.28,18.38-160.51,18.38-16.79,0-33.29-.51-49.33-1.5Zm228.91-22.72L312.35,357.89a8,8,0,0,0-10.25.64l-62.5,59.31L157,359.44a8,8,0,0,0-10,.6l-89.87,81c-20.9-9.52-32.7-20.17-32.7-30.21l.48-191.44c37.8,31.93,136.92,48.87,231.39,48.87,94,0,192.63-16.78,230.84-48.42l-.28,191c0,12.78-18.95,26.52-51.36,37.67Z" transform="translate(-8.41 -121.88)"/><path class="cls-1" d="M230.26,299.14a35.18,35.18,0,1,0,35.18,35.18A35.18,35.18,0,0,0,230.26,299.14Zm0,54.36a19.18,19.18,0,1,1,19.18-19.18A19.18,19.18,0,0,1,230.26,353.5Z" transform="translate(-8.41 -121.88)"/></svg>