<svg id="icon" xmlns="http://www.w3.org/2000/svg" viewBox="0 0 75.02 55.54"><defs><style>.cls-1{fill:#fff;}</style></defs><title>scaffold_image_icon</title><path class="cls-1" d="M70.51,41a36.74,36.74,0,0,0-10.67-4.1v-6a1.17,1.17,0,0,0-.68-1.09l-21-9.66a1.24,1.24,0,0,0-1,0l-21,9.66a1.2,1.2,0,0,0-.68,1.09v6.08A38.8,38.8,0,0,0,4.93,41C1.78,43,.17,45.15.17,47.55c0,3.21,3,6.13,8.55,8.44a47.72,47.72,0,0,0,6.81,2.17v6.52a1.2,1.2,0,0,0,.69,1.09l21,9.65a1.17,1.17,0,0,0,1,0l21-9.66a1.16,1.16,0,0,0,.68-1.08V58.15c8.69-2.16,15.35-5.73,15.35-10.6C75.19,44.55,72.65,42.33,70.51,41ZM37.69,22.51l18.12,8.34-18.12,8.4-18.13-8.4ZM30.05,63.92V54.48l7.2,4.72Zm-.54-12.66a1.2,1.2,0,0,0-1.85,1v5.47a81.85,81.85,0,0,1-9.73-1.46V32.72l18.56,8.61v14.5ZM2.57,47.55c0-1.88,2-3.49,3.63-4.51a34.46,34.46,0,0,1,9.33-3.64V55.7C7,53.52,2.57,50.29,2.57,47.55ZM17.93,58.7a88.44,88.44,0,0,0,9.73,1.44v6a1.2,1.2,0,0,0,1.85,1l7-4.58v9.9L17.93,63.91Zm39.52,5.21L38.88,72.46V61l1.21-.79a1.19,1.19,0,0,0,.54-1,1.18,1.18,0,0,0-.54-1l-1.21-.79V41.33l18.57-8.61V56.26A85.12,85.12,0,0,1,46,57.88a1.2,1.2,0,0,0,.1,2.39h.08a89.65,89.65,0,0,0,11.29-1.58Zm8.14-10.07a45.85,45.85,0,0,1-5.75,1.85V39.36c8.09,2,13,5.14,13,8.19C72.8,49.68,70.17,52,65.59,53.84Z" transform="translate(-0.17 -19.99)"/></svg>